<?xml version="1.0" encoding="UTF-8"?>
<svg width="512" height="512" viewBox="0 0 512 512" xmlns="http://www.w3.org/2000/svg">
  <circle cx="256" cy="256" r="240" fill="#F97316" stroke="#000000" stroke-width="12"/>
  <path d="M256 16C123.452 16 16 123.452 16 256s107.452 240 240 240 240-107.452 240-240S388.548 16 256 16zm0 40c34.686 0 67.342 8.92 95.703 24.56-16.12 16.35-32.18 33.213-47.14 52.5-15.89-8.44-32.93-13.76-50.68-15.62-1.43-20.62-1.63-41.28-.66-61.93.9-.03 1.8-.06 2.78-.06zm-16.02.28c-1.05 20.5-1.12 41.06.17 61.56-17.93 1.17-35.23 6.38-51.08 15-16.48-19.35-34.06-36.33-51.69-52.13C167.91 64.43 201.11 56 239.98 56.28zm129.01 39.44c37.19 36.5 60.19 87.53 60.19 143.97 0 10.76-.86 21.33-2.5 31.65-19.72-2.07-39.68-2.88-59.78-2.35-3.37-20.47-11.35-39.92-23.5-56.8 14.9-21.8 31.89-40.65 47.63-57.85 8.28-9.25 16.77-17.98 25.47-26.2-15.9-11.88-30.75-22.02-47.51-32.42zM142.5 97.94c17.44 15.78 33.55 33.63 48.69 53.43-12.13 16.95-20.06 36.47-23.35 57-20.2-.53-40.26.32-60.06 2.54-1.66-10.35-2.53-20.96-2.53-31.76 0-56.5 23.06-107.59 60.34-144.08-7.93 9.97-15.63 20.14-23.09 30.54v32.33zM256 159.97c53.02 0 96.03 43 96.03 96.03 0 53.02-43 96.03-96.03 96.03-53.02 0-96.03-43-96.03-96.03s43-96.03 96.03-96.03zm-148.53 79.1c19.43-1.41 38.9-1.25 58.19.1 1.38 21.4 7.32 41.78 17.32 59.68-17.2 21.31-32.9 44.08-47.02 68.13C103.54 336.87 80 298.67 80 256c0-5.43.35-10.77 1.02-16.01 8.9-.32 17.77-.43 26.45-.91zm297.35 1.03c.63 4.93.95 9.93.95 15.03 0 42.63-23.5 80.82-58.86 100.9-14.07-24.15-29.75-46.99-46.96-68.33 9.97-17.88 15.9-38.22 17.3-59.6 19.3-1.36 38.8-1.5 58.25-.08 9.77.65 19.5 1.36 29.32 12.08zm-67.69 103.77c15.9 19.27 31.92 36.24 48 51.66-30.14 19.06-65.79 30.09-103.95 30.09-38.23 0-73.93-11.06-104.1-30.17 15.75-15.84 32.13-33.1 48.9-52.53 17.6 9.3 37.59 14.53 58.51 14.53 20.86 0 40.8-5.21 58.36-14.47l-5.72.89z" fill="#212121" fill-opacity="0.6"/>
</svg>